<svg width="96" height="18" viewBox="0 0 96 18" fill="none" xmlns="http://www.w3.org/2000/svg">
<path fill-rule="evenodd" clip-rule="evenodd" d="M2.38236 18.0001C2.45671 18.0001 2.52781 17.9705 2.58014 17.9181C2.63247 17.8658 2.66207 17.7947 2.66207 17.7203V6.79489C2.66207 5.64756 3.12981 4.62294 3.87617 3.86539C4.65573 3.09665 5.6919 2.66248 6.79448 2.66248C8.44456 2.66248 9.92501 3.63585 10.5768 5.13868C10.6053 5.20545 10.5779 5.28304 10.5137 5.31697C9.89867 5.64251 6.93415 7.21174 5.97847 7.71774C5.79548 7.81482 5.68072 8.00502 5.68072 8.21219C5.68072 10.1636 5.68072 12.1396 5.68072 14.0459C5.68072 14.5025 5.75867 14.937 5.9034 15.338C6.09287 15.9061 6.42708 16.4185 6.85006 16.8415C7.26222 17.2645 7.77435 17.5879 8.35361 17.7882C8.78815 17.9329 9.22232 17.9997 9.69042 17.9997H13.3093C13.3832 17.9997 13.4547 17.9701 13.507 17.9178C13.5594 17.8654 13.589 17.7943 13.589 17.72C13.589 14.16 13.589 10.5996 13.589 7.03923L19.4144 4.09854V17.7196C19.4144 17.794 19.444 17.8651 19.4963 17.9174C19.5487 17.9697 19.6198 17.9993 19.6941 17.9993C20.2055 17.9993 21.2854 17.9993 21.7968 17.9993C21.9512 17.9993 22.0765 17.8741 22.0765 17.7196C22.0765 15.7599 22.0765 4.0657 22.0765 0.695884C22.0765 0.501715 21.9758 0.321621 21.8105 0.219483C21.6452 0.117707 21.4387 0.108684 21.2655 0.196024C19.0607 1.30654 13.1212 4.29848 13.1212 4.29848C12.7758 3.42977 12.2637 2.64985 11.5953 1.9818C10.3144 0.700937 8.59903 -0.000671387 6.79448 -0.000671387C5.30212 -0.000671387 3.85415 0.478256 2.66207 1.39172C0.98023 2.68377 0 4.66661 0 6.79381V17.7193C0 17.7936 0.0295946 17.8647 0.0819265 17.917C0.134258 17.9694 0.205358 17.999 0.279705 17.999H2.38236V18.0001ZM10.7212 8.20749C10.7648 8.1844 10.8168 8.18584 10.859 8.2111C10.9013 8.23637 10.9269 8.28184 10.9269 8.33092C10.9269 10.5765 10.9269 12.8131 10.9269 15.0583C10.9269 15.1326 10.8973 15.2037 10.845 15.2561C10.7926 15.3084 10.7215 15.338 10.6472 15.338C10.2762 15.338 9.66804 15.338 9.66804 15.338C9.31147 15.338 8.97726 15.2153 8.72138 14.9594C8.47632 14.7143 8.35361 14.3913 8.35361 14.0459V9.63597C8.35361 9.53239 8.41064 9.43783 8.50195 9.38911C8.93828 9.15668 10.2188 8.47493 10.7212 8.20749Z" fill="#17FF82"/>
<path d="M42.9819 6.06689C40.2137 6.06689 39.3208 6.72555 38.6066 7.6964H38.4615L38.4727 7.70759C37.8252 6.76995 36.6981 6.06689 34.7113 6.06689C32.7356 6.06689 31.7421 6.72555 31.0278 7.6964H30.8939V6.50107C30.8939 6.41589 30.856 6.33505 30.7903 6.28055C30.7247 6.22606 30.6384 6.20368 30.5547 6.2192C30.0458 6.31412 29.0793 6.49457 28.4639 6.60934C28.1384 6.66997 27.9023 6.95437 27.9023 7.28532C27.9023 9.21547 27.9023 15.4505 27.9023 16.8639C27.9023 16.9397 27.9327 17.0126 27.9864 17.0663C28.0402 17.1201 28.1131 17.1504 28.1889 17.1504C28.7602 17.1504 30.0357 17.1504 30.607 17.1504C30.6832 17.1504 30.7561 17.1205 30.8095 17.0663C30.8632 17.0126 30.8936 16.9397 30.8936 16.8639C30.8936 15.7559 30.8936 11.8151 30.8936 11.8151C30.8936 10.3083 31.0722 8.65642 33.6617 8.65642C36.3852 8.65642 36.3516 10.7547 36.3516 11.6144V16.852C36.3516 16.9281 36.3819 17.0014 36.436 17.0551C36.4902 17.1089 36.5631 17.1389 36.6392 17.1385C37.2116 17.1363 38.4867 17.1317 39.0573 17.1295C39.2151 17.1288 39.3428 17.0006 39.3428 16.8429C39.3428 15.732 39.3428 11.7595 39.3428 11.7595L39.354 11.8155C39.354 10.3087 39.5215 8.65678 42.111 8.65678C44.8456 8.65678 44.812 10.7551 44.812 11.6148V16.8646C44.812 17.023 44.9405 17.1511 45.0986 17.1511C45.6681 17.1511 46.9364 17.1511 47.5059 17.1511C47.6639 17.1511 47.7924 17.023 47.7924 16.8646C47.7924 15.7299 47.7924 11.6148 47.7924 11.6148C47.7924 9.99648 47.6697 6.06689 42.9819 6.06689Z" fill="#127DFD"/>
<path d="M54.6864 5.86768C51.339 5.86768 48.5293 7.69207 48.5293 11.4802C48.5293 15.2907 51.3386 17.0923 54.6864 17.0923C58.0342 17.0923 60.8435 15.3459 60.8435 11.4802C60.8435 7.665 58.0342 5.86768 54.6864 5.86768ZM54.6864 14.3642C52.8108 14.3642 51.474 13.546 51.474 11.4795C51.474 9.41506 52.8104 8.59471 54.6864 8.59471C56.5624 8.59471 57.8989 9.44862 57.8989 11.4795C57.8989 13.4789 56.5624 14.3642 54.6864 14.3642Z" fill="#127DFD"/>
<path d="M67.6161 5.86768C64.2687 5.86768 61.459 7.69207 61.459 11.4802C61.459 15.2907 64.2683 17.0923 67.6161 17.0923C70.9639 17.0923 73.7732 15.3459 73.7732 11.4802C73.7732 7.665 70.9639 5.86768 67.6161 5.86768ZM67.6161 14.3642C65.7405 14.3642 64.4036 13.546 64.4036 11.4795C64.4036 9.41506 65.7401 8.59471 67.6161 8.59471C69.4921 8.59471 70.8286 9.44862 70.8286 11.4795C70.8286 13.4789 69.4921 14.3642 67.6161 14.3642Z" fill="#127DFD"/>
<path d="M77.565 17.1508C77.6412 17.1508 77.7137 17.1208 77.7675 17.0667C77.8213 17.0129 77.8516 16.94 77.8516 16.8642C77.8516 14.8525 77.8516 2.9306 77.8516 2.9306C77.8516 2.9306 76.2881 3.22222 75.4219 3.38391C75.0964 3.44454 74.8604 3.72893 74.8604 4.05989C74.8604 6.39425 74.8604 15.1636 74.8604 16.8639C74.8604 16.9397 74.8907 17.0126 74.9444 17.0663C74.9982 17.1201 75.0711 17.1504 75.1473 17.1504C75.7186 17.1504 76.994 17.1504 77.5654 17.1504L77.565 17.1508Z" fill="#127DFD"/>
<path d="M88.0534 7.77472C87.3056 6.80351 85.9215 6.06689 83.8787 6.06689C79.1909 6.06689 78.6885 9.99575 78.6885 11.6144C78.6885 13.0989 79.2129 17.1508 83.8675 17.1508C85.9435 17.1508 87.3052 16.3582 88.0642 15.2643L88.053 15.6101C88.053 15.6101 88.053 16.4185 88.053 16.8639C88.053 16.9397 88.083 17.0126 88.1371 17.0663C88.1909 17.1201 88.2638 17.1504 88.3399 17.1504C88.9152 17.1504 90.2051 17.1504 90.7804 17.1504C90.8565 17.1504 90.9294 17.1205 90.9832 17.0663C91.037 17.0126 91.0673 16.9397 91.0673 16.8639C91.0673 15.1254 91.0673 6.06689 91.0673 6.06689H89.2916C88.9632 6.06689 88.6485 6.19718 88.4164 6.42961C88.1844 6.66167 88.0537 6.97639 88.0537 7.30481V7.77472H88.0534ZM84.7384 14.5721C81.8811 14.5721 81.5573 12.4066 81.5573 11.6141C81.5573 10.7436 81.8699 8.64523 84.7384 8.64523C87.3391 8.64523 87.8751 10.1073 87.8751 11.6141C87.8751 13.2883 87.3395 14.5721 84.7384 14.5721Z" fill="#127DFD"/>
</svg>
